<svg width="199" height="119" viewBox="0 0 199 119" fill="none" xmlns="http://www.w3.org/2000/svg">
<g id="Group">
<path id="Vector" fill-rule="evenodd" clip-rule="evenodd" d="M143.262 113.21C160.941 113.64 179.007 112.779 195.91 118.886C196.918 119.247 198.026 118.722 198.39 117.704C198.747 116.686 198.227 115.567 197.22 115.199C179.921 108.95 161.444 109.733 143.355 109.295C142.286 109.263 141.394 110.125 141.371 111.205C141.34 112.286 142.193 113.178 143.262 113.21Z" fill="black"/>
<path id="Vector_2" fill-rule="evenodd" clip-rule="evenodd" d="M141.674 87.2787C147.184 82.1562 153.198 78.3188 160.468 76.4168C161.507 76.1459 162.127 75.077 161.863 74.0309C161.592 72.9848 160.53 72.3561 159.499 72.627C151.594 74.6942 145.045 78.83 139.054 84.3965C138.263 85.1278 138.209 86.3673 138.938 87.1629C139.658 87.9576 140.891 88.01 141.674 87.2787Z" fill="black"/>
<g id="Group_2">
<path id="Vector_3" fill-rule="evenodd" clip-rule="evenodd" d="M126.343 31.3538C128.87 22.6036 133.846 15.7586 141.472 10.8154C142.371 10.2321 142.635 9.01998 142.053 8.11091C141.48 7.20183 140.279 6.93715 139.379 7.52049C130.939 12.9937 125.421 20.5686 122.623 30.2568C122.321 31.2935 122.918 32.3819 123.941 32.6841C124.972 32.9871 126.049 32.3905 126.343 31.3538Z" fill="black"/>
</g>
<path id="Vector_4" fill-rule="evenodd" clip-rule="evenodd" d="M39.2685 19.4786C37.7649 21.2662 36.4163 23.1924 35.2693 25.2431C34.7577 26.1561 33.8587 28.0964 33.7192 29.7603C33.5642 31.533 34.1609 33.0286 35.6955 33.8163C37.7338 34.8609 39.3614 34.752 40.617 34.1201C41.826 33.5133 42.7715 32.3208 43.3683 30.7219C44.5076 27.6658 44.3371 22.9951 43.7403 20.3298C45.3446 18.6573 47.104 17.1405 48.9873 15.7922C63.0154 5.75008 83.5925 9.45295 99.4264 24.468C104.968 29.7251 107.634 40.7655 109.021 52.6775C111.184 71.2246 109.951 91.94 109.781 98.0091C109.742 99.5078 109.882 100.397 109.959 100.575C110.323 101.449 110.967 101.676 111.416 101.762C112.067 101.879 112.586 101.754 113.005 101.535C113.571 101.234 114.036 100.705 114.253 99.8883C114.369 99.4373 114.4 98.8093 114.384 98.1398C114.369 97.6755 114.276 97.1681 114.369 96.8353C114.973 94.704 115.702 92.6227 116.415 90.5266C118.794 83.4803 121.871 76.8772 125.289 70.2819C136.147 49.3254 146.649 27.1826 164.452 11.2163C165.25 10.4998 165.327 9.26111 164.614 8.45305C163.909 7.64498 162.684 7.57136 161.878 8.2886C143.719 24.5705 132.931 47.0946 121.856 68.4661C118.949 74.0763 116.283 79.6945 114.067 85.571C114.291 75.1757 114.206 60.7863 112.323 48.0546C110.649 36.7315 107.463 26.7246 102.077 21.6139C84.7318 5.16517 62.1086 1.59701 46.7474 12.5983C45.1044 13.776 43.5389 15.0711 42.0818 16.4758C34.0447 1.81393 16.839 -4.0626 1.63285 2.95004C0.656313 3.3987 0.230053 4.5607 0.671821 5.54338C1.12134 6.52606 2.26835 6.95986 3.24489 6.5112C16.9475 0.192304 32.4869 5.83152 39.2685 19.4786ZM40.3922 24.3873C39.7644 25.2831 39.1832 26.2117 38.6406 27.1717C38.3539 27.6869 37.8578 28.6774 37.6486 29.6468C37.6021 29.8739 37.5944 30.2293 37.5944 30.3938C38.1291 30.66 38.5476 30.7884 38.8886 30.6154C39.3149 30.4024 39.532 29.9013 39.7412 29.3414C40.2682 27.9367 40.4387 26.0747 40.3922 24.3873Z" fill="black"/>
</g>
</svg>
