<svg width="41" height="44" viewBox="0 0 41 44" fill="none" xmlns="http://www.w3.org/2000/svg">
<g id="Group">
<g id="Group_2">
<path id="Vector" fill-rule="evenodd" clip-rule="evenodd" d="M16.4286 8.6709C16.3108 7.97161 16.222 7.28026 16.1646 6.58883C16.0782 5.55169 16.1316 4.50662 16.101 3.46947C16.0876 3.02947 16.035 1.88234 16.0562 1.71734C16.2487 0.279487 17.4092 0.0594605 17.7486 0.0201748C17.9128 -0.00339662 19.599 -0.191884 19.9628 1.67812C20.409 3.96454 20.5521 6.26666 20.3941 8.52166C20.7626 10.4388 21.3928 12.348 22.2249 14.0766C25.5359 20.9516 31.8451 21.6195 38.6808 21.5566C39.7321 21.5409 40.6051 22.3659 40.6601 23.4109C40.7151 24.4638 39.9325 25.3752 38.8859 25.4695C35.065 25.8388 28.2858 28.9031 25.942 32.0931C25.4517 32.7609 25.1665 34.3717 24.7894 35.951C24.263 38.1431 23.6368 40.3117 22.9351 41.2231C22.8298 41.3645 21.5499 42.8103 21.168 43.0224C20.2503 43.5253 19.5157 43.2345 19.0985 42.9673C18.6813 42.7002 18.2091 42.1738 18.0205 41.3016C17.8233 40.3902 17.9898 38.5202 17.9592 38.1195C17.8476 36.6659 17.5569 33.8138 16.9637 31.3623C16.6439 30.0423 16.3029 28.8245 15.7388 28.2195C13.6503 25.9802 10.3111 26.3102 7.49899 26.6795C7.17606 26.7188 6.85314 26.766 6.53099 26.8052C5.38621 27.1431 4.17068 27.3945 2.88604 27.5438C0.946107 27.7716 0.627128 25.9881 0.609842 25.8702C0.5737 25.6109 0.439328 24.2752 1.90154 23.7409C2.06104 23.6859 3.23805 23.4266 3.69141 23.3245C4.32313 23.1831 4.9619 23.0731 5.60304 22.971C12.2258 20.9124 15.8228 15.1295 16.4286 8.6709ZM18.7017 15.8131C21.2018 20.9831 24.996 23.4816 29.4935 24.6131H29.4927C26.6846 26.0824 24.1302 27.921 22.7764 29.7674C22.2625 30.4667 21.7911 31.8731 21.3661 33.4524C21.1358 31.9831 20.8247 30.4195 20.4138 29.0837C19.9463 27.5595 19.3169 26.2945 18.6145 25.5403C17.2583 24.0867 15.5565 23.2774 13.7265 22.8767C15.9171 20.936 17.5781 18.516 18.7017 15.8131Z" fill="black"/>
</g>
</g>
</svg>
