<svg width="135" height="120" viewBox="0 0 135 120" fill="none" xmlns="http://www.w3.org/2000/svg">
<path fill-rule="evenodd" clip-rule="evenodd" d="M102.798 39.8227C102.42 38.8831 102.076 37.9464 101.767 37.0009C101.302 35.5827 100.986 34.1144 100.582 32.6806C100.41 32.0724 99.942 30.4918 99.906 30.2564C99.6005 28.203 100.782 27.5728 101.136 27.4234C101.306 27.3447 103.069 26.6116 104.134 29.1106C105.436 32.1656 106.415 35.3272 107.05 38.5074C108.137 41.0706 109.504 43.5498 111.026 45.7213C117.081 54.3574 124.17 53.5238 131.569 51.5269C132.705 51.2114 133.948 52.1148 134.382 53.5528C134.818 55.0016 134.295 56.4877 133.192 56.9112C129.176 58.4921 122.911 64.6474 121.508 69.7384C121.215 70.8042 121.481 73.1239 121.637 75.4256C121.85 78.6212 121.945 81.812 121.51 83.2755C121.446 83.5016 120.574 85.8697 120.235 86.2714C119.418 87.2271 118.517 87.0279 117.968 86.773C117.42 86.518 116.719 85.9178 116.202 84.7576C115.661 83.5452 115.173 80.898 114.997 80.3492C114.355 78.3589 113.019 74.4737 111.498 71.2302C110.679 69.4838 109.873 67.8854 109.044 67.2016C105.975 64.6708 102.467 66.0626 99.5461 67.3617C99.2096 67.5065 98.8758 67.6623 98.5401 67.8069C97.418 68.5966 96.1882 69.2857 94.8468 69.8522C92.822 70.711 91.8375 68.3197 91.7765 68.1606C91.6445 67.8101 91.0207 65.9901 92.4172 64.8386C92.5707 64.7176 93.7559 64.0281 94.2116 63.7595C94.8469 63.3863 95.5011 63.0549 96.1607 62.7338C102.615 58.0209 104.451 48.9738 102.798 39.8227ZM107.822 49.1204C112.386 55.6119 117.4 58.0268 122.688 58.3439C120.164 61.1717 118.048 64.4424 117.239 67.3884C116.931 68.5044 116.922 70.592 117.026 72.907C116.25 70.928 115.353 68.8404 114.429 67.0976C113.376 65.1084 112.24 63.5251 111.207 62.6723C109.215 61.0296 107.077 60.3796 104.947 60.3335C106.631 57.0226 107.569 53.1931 107.822 49.1204Z" fill="black"/>
<path fill-rule="evenodd" clip-rule="evenodd" d="M61.3389 11.611C61.221 10.6742 61.1322 9.74799 61.0749 8.82168C60.9884 7.43222 61.0419 6.03213 61.0112 4.64267C60.9979 4.0532 60.9452 2.51639 60.9664 2.29534C61.1589 0.369033 62.3194 0.0742627 62.6589 0.0216315C62.8231 -0.00994722 64.5092 -0.262464 64.873 2.24278C65.3193 5.30592 65.4623 8.39007 65.3044 11.4111C65.6729 13.9795 66.303 16.5373 67.1351 18.8531C70.4461 28.0636 76.7554 28.9583 83.5911 28.8741C84.6424 28.853 85.5153 29.9583 85.5703 31.3583C85.6253 32.7688 84.8428 33.9898 83.7962 34.1161C79.9753 34.6109 73.1961 38.7162 70.8523 42.9898C70.362 43.8845 70.0768 46.0425 69.6997 48.1582C69.1732 51.0951 68.547 54.0003 67.8454 55.2213C67.7401 55.4108 66.4601 57.3476 66.0783 57.6319C65.1606 58.3055 64.426 57.916 64.0087 57.5581C63.5915 57.2002 63.1193 56.495 62.9307 55.3265C62.7335 54.1055 62.9001 51.6002 62.8694 51.0634C62.7579 49.116 62.4672 45.295 61.874 42.0108C61.5542 40.2424 61.2132 38.6108 60.649 37.8003C58.5606 34.8003 55.2213 35.2425 52.4092 35.7372C52.0863 35.7899 51.7634 35.853 51.4412 35.9057C50.2965 36.3583 49.0809 36.6951 47.7963 36.8951C45.8564 37.2003 45.5374 34.8109 45.5201 34.653C45.4839 34.3056 45.3496 32.5162 46.8118 31.8004C46.9713 31.7267 48.1483 31.3793 48.6017 31.2425C49.2334 31.053 49.8721 30.9057 50.5133 30.7689C57.1361 28.011 60.7331 20.2636 61.3389 11.611ZM63.6119 21.1795C66.1121 28.1057 69.9063 31.453 74.4037 32.9688H74.403C71.5948 34.9372 69.0404 37.4004 67.6866 39.8741C67.1728 40.8109 66.7014 42.6951 66.2763 44.8108C66.0461 42.8424 65.735 40.7476 65.324 38.9582C64.8565 36.9161 64.2271 35.2215 63.5247 34.211C62.1686 32.2636 60.4667 31.1794 58.6368 30.6426C60.8274 28.0426 62.4884 24.8005 63.6119 21.1795Z" fill="black"/>
<path fill-rule="evenodd" clip-rule="evenodd" d="M80.9002 78.5899C80.7499 77.7571 80.6255 76.9324 80.5286 76.1061C80.3828 74.8667 80.3584 73.6108 80.2612 72.3686C80.2197 71.8416 80.0959 70.4685 80.1032 70.2696C80.1734 68.5359 81.1704 68.2147 81.4638 68.1508C81.6054 68.1144 83.0629 67.8052 83.5071 70.0297C84.0515 72.7495 84.3326 75.5031 84.348 78.2151C84.7995 80.4959 85.4787 82.7544 86.3216 84.7862C89.6757 92.8671 95.2228 93.3565 101.179 92.9435C102.095 92.8728 102.912 93.819 103.031 95.0694C103.151 96.3293 102.53 97.4609 101.624 97.6257C98.3171 98.2572 92.6136 102.267 90.7865 106.208C90.4043 107.033 90.265 108.979 90.0434 110.891C89.7332 113.546 89.3344 116.177 88.7844 117.305C88.7022 117.48 87.6843 119.277 87.3657 119.55C86.5996 120.198 85.9393 119.886 85.5573 119.586C85.1753 119.286 84.7278 118.678 84.5042 117.642C84.2703 116.559 84.2885 114.308 84.2346 113.829C84.0386 112.091 83.5915 108.685 82.9077 105.775C82.5392 104.208 82.1591 102.764 81.6261 102.066C79.6529 99.4842 76.7634 100.045 74.3364 100.627C74.0574 100.69 73.7791 100.762 73.5008 100.825C72.5255 101.287 71.4826 101.648 70.3725 101.891C68.6964 102.26 68.2971 100.137 68.274 99.9963C68.2249 99.6871 68.017 98.092 69.2558 97.3791C69.3912 97.3053 70.3999 96.9362 70.7883 96.7913C71.3296 96.5905 71.8791 96.4271 72.4313 96.273C78.0666 93.4773 80.8105 86.3649 80.9002 78.5899ZM83.3673 87.0425C85.8985 93.1189 89.3768 95.9278 93.3754 97.0625L93.3747 97.0625C91.0258 98.9631 88.9232 101.294 87.8681 103.575C87.4675 104.439 87.1519 106.149 86.8885 108.064C86.588 106.313 86.2105 104.454 85.7614 102.872C85.2503 101.067 84.6155 99.5814 83.9518 98.7115C82.6705 97.0354 81.1315 96.1489 79.5086 95.7588C81.287 93.3233 82.5711 90.3392 83.3673 87.0425Z" fill="black"/>
<path fill-rule="evenodd" clip-rule="evenodd" d="M13.2166 48.6535C12.932 47.6449 12.678 46.6432 12.455 45.6364C12.1201 44.1262 11.9213 42.5818 11.6414 41.0625C11.5223 40.4181 11.1942 38.7408 11.1755 38.4949C11.0194 36.3507 12.1116 35.8398 12.4372 35.7272C12.5935 35.666 14.2121 35.1165 15.0212 37.8058C16.012 41.0938 16.7072 44.4538 17.0941 47.7933C17.9192 50.5511 19.0006 53.255 20.2377 55.6608C25.1599 65.2291 31.547 65.1908 38.2777 63.9936C39.3114 63.8006 40.3714 64.8719 40.6772 66.3987C40.9849 67.9371 40.432 69.403 39.4219 69.7107C35.7401 70.8709 29.7876 76.4699 28.2424 81.5367C27.9193 82.5974 28.0255 85.0106 28.0335 87.3925C28.0416 90.6991 27.9456 93.9872 27.4725 95.44C27.4026 95.6648 26.4875 97.9964 26.1617 98.3698C25.3771 99.2572 24.5822 98.9486 24.1061 98.6234C23.6301 98.2983 23.0374 97.601 22.6414 96.3498C22.2274 95.0422 21.9417 92.2671 21.815 91.6832C21.355 89.5651 20.3817 85.4206 19.2062 81.9139C18.573 80.0258 17.9433 78.2912 17.241 77.4932C14.641 74.54 11.4251 75.5647 8.73885 76.5619C8.42963 76.6718 8.1223 76.7933 7.81385 76.9031C6.76543 77.5847 5.62639 78.1506 4.39457 78.5776C2.53499 79.226 1.79092 76.6564 1.74549 76.486C1.64742 76.1108 1.19333 74.1696 2.50773 73.1481C2.65189 73.0415 3.75101 72.4702 4.17383 72.2468C4.7632 71.9369 5.3671 71.672 5.97523 71.4183C12.0155 67.3227 14.1733 58.2428 13.2166 48.6535ZM17.1789 58.7822C20.8905 65.9758 25.2362 69.0344 29.9468 69.9702L29.946 69.9703C27.5285 72.5834 25.4502 75.6983 24.5586 78.6306C24.2198 79.7413 24.0931 81.8843 24.0537 84.2739C23.4729 82.1518 22.7895 79.9043 22.0625 78.0077C21.2343 75.8432 20.3087 74.0861 19.434 73.0911C17.7458 71.1742 15.8715 70.2599 13.9692 69.9668C15.6639 66.7607 16.7206 62.9358 17.1789 58.7822Z" fill="black"/>
</svg>
